<mxfile host="app.diagrams.net" modified="2023-10-04T05:54:17.478Z" agent="Mozilla/5.0 (Windows NT 10.0; Win64; x64) AppleWebKit/537.36 (KHTML, like Gecko) Chrome/117.0.0.0 Safari/537.36" version="22.0.2" etag="CyB92OwCrTB7RwOFu6_9" type="github">
  <diagram name="페이지-1" id="2mb-ybvVBBST6Oh9kp6O">
    <mxGraphModel>
      <root>
        <mxCell id="0" />
        <mxCell id="1" parent="0" />
      </root>
    </mxGraphModel>
  </diagram>
</mxfile>
